<svg width="92" height="100" viewBox="0 0 92 100" fill="none" xmlns="http://www.w3.org/2000/svg">
<g clip-path="url(#clip0_0_1)">
<path d="M91.6161 44.86C91.4315 35.478 90.7363 27.063 89.5244 25.0005C88.5023 23.2585 83.3523 19.5657 76.9049 15.542L59.7137 5.73311C53.2749 2.39541 47.8032 0 45.8311 0C43.4012 0 35.6542 3.63131 27.3332 8.18049C21.0291 11.6267 14.4004 15.5961 9.4969 18.9267C5.64653 21.5395 2.85826 23.7547 2.13797 25.0007C1.40223 26.2728 0.857832 29.9119 0.501842 34.6786L0.501702 34.6785C0.0497516 40.718 -0.0972979 48.5679 0.0623721 55.7788C0.264702 64.8897 0.954802 72.9642 2.13798 74.9993C4.99873 79.9233 40.1161 100 45.8311 100C48.2051 100 55.6536 96.5289 63.755 92.1228C70.155 88.642 76.9536 84.581 81.9912 81.1769L81.9907 81.1766C85.9276 78.5161 88.7913 76.2572 89.5246 74.9993C90.2536 73.7511 90.7948 70.1938 91.1534 65.5187L91.1532 65.5186C91.6023 59.6322 91.7574 51.9723 91.6161 44.86Z" fill="url(#paint0_linear_0_1)"/>
<path d="M12.4473 60.2119H10.5479V59.4453H12.4473C12.8151 59.4453 13.113 59.3867 13.3408 59.2695C13.5687 59.1523 13.7347 58.9896 13.8389 58.7812C13.9463 58.5729 14 58.3353 14 58.0684C14 57.8242 13.9463 57.5947 13.8389 57.3799C13.7347 57.165 13.5687 56.9925 13.3408 56.8623C13.113 56.7288 12.8151 56.6621 12.4473 56.6621H10.7676V63H9.8252V55.8906H12.4473C12.9844 55.8906 13.4385 55.9834 13.8096 56.1689C14.1807 56.3545 14.4622 56.6117 14.6543 56.9404C14.8464 57.266 14.9424 57.6387 14.9424 58.0586C14.9424 58.5143 14.8464 58.9033 14.6543 59.2256C14.4622 59.5479 14.1807 59.7936 13.8096 59.9629C13.4385 60.1289 12.9844 60.2119 12.4473 60.2119ZM16.9004 58.5469V63H15.9971V57.7168H16.876L16.9004 58.5469ZM18.5508 57.6875L18.5459 58.5273C18.471 58.5111 18.3994 58.5013 18.3311 58.498C18.266 58.4915 18.1911 58.4883 18.1064 58.4883C17.8981 58.4883 17.7142 58.5208 17.5547 58.5859C17.3952 58.651 17.2601 58.7422 17.1494 58.8594C17.0387 58.9766 16.9508 59.1165 16.8857 59.2793C16.8239 59.4388 16.7832 59.6146 16.7637 59.8066L16.5098 59.9531C16.5098 59.6341 16.5407 59.3346 16.6025 59.0547C16.6676 58.7747 16.7669 58.5273 16.9004 58.3125C17.0339 58.0944 17.2031 57.9251 17.4082 57.8047C17.6165 57.681 17.8639 57.6191 18.1504 57.6191C18.2155 57.6191 18.2904 57.6273 18.375 57.6436C18.4596 57.6566 18.5182 57.6712 18.5508 57.6875ZM19.0488 60.417V60.3047C19.0488 59.9238 19.1042 59.5706 19.2148 59.2451C19.3255 58.9163 19.485 58.6315 19.6934 58.3906C19.9017 58.1465 20.154 57.9577 20.4502 57.8242C20.7464 57.6875 21.0785 57.6191 21.4463 57.6191C21.8174 57.6191 22.151 57.6875 22.4473 57.8242C22.7467 57.9577 23.0007 58.1465 23.209 58.3906C23.4206 58.6315 23.5817 58.9163 23.6924 59.2451C23.8031 59.5706 23.8584 59.9238 23.8584 60.3047V60.417C23.8584 60.7979 23.8031 61.151 23.6924 61.4766C23.5817 61.8021 23.4206 62.0869 23.209 62.3311C23.0007 62.5719 22.7484 62.7607 22.4521 62.8975C22.1592 63.0309 21.8271 63.0977 21.4561 63.0977C21.085 63.0977 20.7513 63.0309 20.4551 62.8975C20.1589 62.7607 19.9049 62.5719 19.6934 62.3311C19.485 62.0869 19.3255 61.8021 19.2148 61.4766C19.1042 61.151 19.0488 60.7979 19.0488 60.417ZM19.9521 60.3047V60.417C19.9521 60.6807 19.9831 60.9297 20.0449 61.1641C20.1068 61.3952 20.1995 61.6003 20.3232 61.7793C20.4502 61.9583 20.6081 62.0999 20.7969 62.2041C20.9857 62.305 21.2054 62.3555 21.4561 62.3555C21.7035 62.3555 21.9199 62.305 22.1055 62.2041C22.2943 62.0999 22.4505 61.9583 22.5742 61.7793C22.6979 61.6003 22.7907 61.3952 22.8525 61.1641C22.9176 60.9297 22.9502 60.6807 22.9502 60.417V60.3047C22.9502 60.0443 22.9176 59.7985 22.8525 59.5674C22.7907 59.333 22.6963 59.1263 22.5693 58.9473C22.4456 58.765 22.2894 58.6217 22.1006 58.5176C21.915 58.4134 21.6969 58.3613 21.4463 58.3613C21.1989 58.3613 20.9808 58.4134 20.792 58.5176C20.6064 58.6217 20.4502 58.765 20.3232 58.9473C20.1995 59.1263 20.1068 59.333 20.0449 59.5674C19.9831 59.7985 19.9521 60.0443 19.9521 60.3047ZM24.9863 55.5H25.8945V61.9746L25.8164 63H24.9863V55.5ZM29.4639 60.3145V60.417C29.4639 60.8011 29.4183 61.1576 29.3271 61.4863C29.236 61.8118 29.1025 62.0951 28.9268 62.3359C28.751 62.5768 28.5361 62.764 28.2822 62.8975C28.0283 63.0309 27.737 63.0977 27.4082 63.0977C27.0729 63.0977 26.7783 63.0407 26.5244 62.9268C26.2738 62.8096 26.0622 62.6419 25.8896 62.4238C25.7171 62.2057 25.5788 61.9421 25.4746 61.6328C25.3737 61.3236 25.3037 60.9753 25.2646 60.5879V60.1387C25.3037 59.748 25.3737 59.3981 25.4746 59.0889C25.5788 58.7796 25.7171 58.516 25.8896 58.2979C26.0622 58.0765 26.2738 57.9089 26.5244 57.7949C26.7751 57.6777 27.0664 57.6191 27.3984 57.6191C27.7305 57.6191 28.0251 57.6842 28.2822 57.8145C28.5394 57.9414 28.7542 58.1237 28.9268 58.3613C29.1025 58.599 29.236 58.8838 29.3271 59.2158C29.4183 59.5446 29.4639 59.9108 29.4639 60.3145ZM28.5557 60.417V60.3145C28.5557 60.0508 28.5312 59.8034 28.4824 59.5723C28.4336 59.3379 28.3555 59.1328 28.248 58.957C28.1406 58.778 27.999 58.638 27.8232 58.5371C27.6475 58.4329 27.431 58.3809 27.1738 58.3809C26.946 58.3809 26.7474 58.4199 26.5781 58.498C26.4121 58.5762 26.2705 58.682 26.1533 58.8154C26.0361 58.9456 25.9401 59.0954 25.8652 59.2646C25.7936 59.4307 25.7399 59.6032 25.7041 59.7822V60.959C25.7562 61.1868 25.8408 61.4066 25.958 61.6182C26.0785 61.8265 26.238 61.9974 26.4365 62.1309C26.6383 62.2643 26.8874 62.3311 27.1836 62.3311C27.4277 62.3311 27.6361 62.2822 27.8086 62.1846C27.9844 62.0837 28.126 61.9453 28.2334 61.7695C28.3441 61.5938 28.4255 61.3903 28.4775 61.1592C28.5296 60.9281 28.5557 60.6807 28.5557 60.417ZM31.5879 55.5V63H30.6797V55.5H31.5879ZM35.2305 63.0977C34.8626 63.0977 34.529 63.0358 34.2295 62.9121C33.9333 62.7852 33.6777 62.6077 33.4629 62.3799C33.2513 62.152 33.0885 61.8818 32.9746 61.5693C32.8607 61.2568 32.8037 60.915 32.8037 60.5439V60.3389C32.8037 59.9092 32.8672 59.5267 32.9941 59.1914C33.1211 58.8529 33.2936 58.5664 33.5117 58.332C33.7298 58.0977 33.9772 57.9202 34.2539 57.7998C34.5306 57.6794 34.8171 57.6191 35.1133 57.6191C35.4909 57.6191 35.8164 57.6842 36.0898 57.8145C36.3665 57.9447 36.5928 58.127 36.7686 58.3613C36.9443 58.5924 37.0745 58.8659 37.1592 59.1816C37.2438 59.4941 37.2861 59.8359 37.2861 60.207V60.6123H33.3408V59.875H36.3828V59.8066C36.3698 59.5723 36.321 59.3444 36.2363 59.123C36.1549 58.9017 36.0247 58.7194 35.8457 58.5762C35.6667 58.4329 35.4225 58.3613 35.1133 58.3613C34.9082 58.3613 34.7194 58.4053 34.5469 58.4932C34.3743 58.5778 34.2262 58.7048 34.1025 58.874C33.9788 59.0433 33.8828 59.25 33.8145 59.4941C33.7461 59.7383 33.7119 60.0199 33.7119 60.3389V60.5439C33.7119 60.7946 33.7461 61.0306 33.8145 61.252C33.8861 61.4701 33.9886 61.6621 34.1221 61.8281C34.2588 61.9941 34.4232 62.1243 34.6152 62.2188C34.8105 62.3132 35.0319 62.3604 35.2793 62.3604C35.5983 62.3604 35.8685 62.2952 36.0898 62.165C36.3112 62.0348 36.5049 61.8607 36.6709 61.6426L37.2178 62.0771C37.1038 62.2497 36.959 62.4141 36.7832 62.5703C36.6074 62.7266 36.391 62.8535 36.1338 62.9512C35.8799 63.0488 35.5788 63.0977 35.2305 63.0977ZM39.2393 58.7666V63H38.3311V57.7168H39.1904L39.2393 58.7666ZM39.0537 60.1582L38.6338 60.1436C38.637 59.7822 38.6842 59.4486 38.7754 59.1426C38.8665 58.8333 39.0016 58.5648 39.1807 58.3369C39.3597 58.109 39.5827 57.9333 39.8496 57.8096C40.1165 57.6826 40.4258 57.6191 40.7773 57.6191C41.0247 57.6191 41.2526 57.6549 41.4609 57.7266C41.6693 57.7949 41.8499 57.904 42.0029 58.0537C42.1559 58.2035 42.2747 58.3955 42.3594 58.6299C42.444 58.8643 42.4863 59.1475 42.4863 59.4795V63H41.583V59.5234C41.583 59.2467 41.5358 59.0254 41.4414 58.8594C41.3503 58.6934 41.2201 58.5729 41.0508 58.498C40.8815 58.4199 40.6829 58.3809 40.4551 58.3809C40.1882 58.3809 39.9652 58.4281 39.7861 58.5225C39.6071 58.6169 39.4639 58.7471 39.3564 58.9131C39.249 59.0791 39.1709 59.2695 39.1221 59.4844C39.0765 59.696 39.0537 59.9206 39.0537 60.1582ZM42.4766 59.6602L41.8711 59.8457C41.8743 59.556 41.9215 59.2777 42.0127 59.0107C42.1071 58.7438 42.2422 58.5062 42.418 58.2979C42.597 58.0895 42.8167 57.9251 43.0771 57.8047C43.3376 57.681 43.6354 57.6191 43.9707 57.6191C44.2539 57.6191 44.5046 57.6566 44.7227 57.7314C44.944 57.8063 45.1296 57.9219 45.2793 58.0781C45.4323 58.2311 45.5479 58.4281 45.626 58.6689C45.7041 58.9098 45.7432 59.1963 45.7432 59.5283V63H44.835V59.5186C44.835 59.2223 44.7878 58.9928 44.6934 58.8301C44.6022 58.6641 44.472 58.5485 44.3027 58.4834C44.1367 58.415 43.9382 58.3809 43.707 58.3809C43.5085 58.3809 43.3327 58.415 43.1797 58.4834C43.0267 58.5518 42.8981 58.6462 42.7939 58.7666C42.6898 58.8838 42.61 59.0189 42.5547 59.1719C42.5026 59.3249 42.4766 59.4876 42.4766 59.6602ZM53.5166 61.2031C53.5166 61.0371 53.4906 60.8906 53.4385 60.7637C53.3896 60.6335 53.3018 60.5163 53.1748 60.4121C53.0511 60.3079 52.8786 60.2087 52.6572 60.1143C52.4391 60.0199 52.1624 59.9238 51.8271 59.8262C51.4756 59.722 51.1582 59.6064 50.875 59.4795C50.5918 59.3493 50.3493 59.2012 50.1475 59.0352C49.9456 58.8691 49.791 58.6787 49.6836 58.4639C49.5762 58.249 49.5225 58.0033 49.5225 57.7266C49.5225 57.4499 49.5794 57.1943 49.6934 56.96C49.8073 56.7256 49.9701 56.5221 50.1816 56.3496C50.3965 56.1738 50.652 56.0371 50.9482 55.9395C51.2445 55.8418 51.5749 55.793 51.9395 55.793C52.4733 55.793 52.9258 55.8955 53.2969 56.1006C53.6712 56.3024 53.9561 56.5677 54.1514 56.8965C54.3467 57.222 54.4443 57.5703 54.4443 57.9414H53.5068C53.5068 57.6745 53.4499 57.4385 53.3359 57.2334C53.222 57.0251 53.0495 56.8623 52.8184 56.7451C52.5872 56.6247 52.2943 56.5645 51.9395 56.5645C51.6042 56.5645 51.3275 56.6149 51.1094 56.7158C50.8913 56.8167 50.7285 56.9535 50.6211 57.126C50.5169 57.2985 50.4648 57.4954 50.4648 57.7168C50.4648 57.8665 50.4958 58.0033 50.5576 58.127C50.6227 58.2474 50.722 58.3597 50.8555 58.4639C50.9922 58.568 51.1647 58.6641 51.373 58.752C51.5846 58.8398 51.8369 58.9245 52.1299 59.0059C52.5335 59.1198 52.8818 59.2467 53.1748 59.3867C53.4678 59.5267 53.7087 59.6846 53.8975 59.8604C54.0895 60.0329 54.2311 60.2298 54.3223 60.4512C54.4167 60.6693 54.4639 60.9167 54.4639 61.1934C54.4639 61.4831 54.4053 61.7451 54.2881 61.9795C54.1709 62.2139 54.0033 62.4141 53.7852 62.5801C53.5671 62.7461 53.305 62.8747 52.999 62.9658C52.6963 63.0537 52.3577 63.0977 51.9834 63.0977C51.6546 63.0977 51.3307 63.0521 51.0117 62.9609C50.696 62.8698 50.4079 62.7331 50.1475 62.5508C49.8903 62.3685 49.6836 62.1439 49.5273 61.877C49.3743 61.6068 49.2979 61.2943 49.2979 60.9395H50.2354C50.2354 61.1836 50.2826 61.3936 50.377 61.5693C50.4714 61.7419 50.5999 61.8851 50.7627 61.999C50.9287 62.113 51.1159 62.1976 51.3242 62.2529C51.5358 62.305 51.7555 62.3311 51.9834 62.3311C52.3122 62.3311 52.5905 62.2855 52.8184 62.1943C53.0462 62.1032 53.2188 61.973 53.3359 61.8037C53.4564 61.6344 53.5166 61.4342 53.5166 61.2031ZM55.2891 60.417V60.3047C55.2891 59.9238 55.3444 59.5706 55.4551 59.2451C55.5658 58.9163 55.7253 58.6315 55.9336 58.3906C56.1419 58.1465 56.3942 57.9577 56.6904 57.8242C56.9867 57.6875 57.3187 57.6191 57.6865 57.6191C58.0576 57.6191 58.3913 57.6875 58.6875 57.8242C58.987 57.9577 59.2409 58.1465 59.4492 58.3906C59.6608 58.6315 59.8219 58.9163 59.9326 59.2451C60.0433 59.5706 60.0986 59.9238 60.0986 60.3047V60.417C60.0986 60.7979 60.0433 61.151 59.9326 61.4766C59.8219 61.8021 59.6608 62.0869 59.4492 62.3311C59.2409 62.5719 58.9886 62.7607 58.6924 62.8975C58.3994 63.0309 58.0674 63.0977 57.6963 63.0977C57.3252 63.0977 56.9915 63.0309 56.6953 62.8975C56.3991 62.7607 56.1452 62.5719 55.9336 62.3311C55.7253 62.0869 55.5658 61.8021 55.4551 61.4766C55.3444 61.151 55.2891 60.7979 55.2891 60.417ZM56.1924 60.3047V60.417C56.1924 60.6807 56.2233 60.9297 56.2852 61.1641C56.347 61.3952 56.4398 61.6003 56.5635 61.7793C56.6904 61.9583 56.8483 62.0999 57.0371 62.2041C57.2259 62.305 57.4456 62.3555 57.6963 62.3555C57.9437 62.3555 58.1602 62.305 58.3457 62.2041C58.5345 62.0999 58.6908 61.9583 58.8145 61.7793C58.9382 61.6003 59.0309 61.3952 59.0928 61.1641C59.1579 60.9297 59.1904 60.6807 59.1904 60.417V60.3047C59.1904 60.0443 59.1579 59.7985 59.0928 59.5674C59.0309 59.333 58.9365 59.1263 58.8096 58.9473C58.6859 58.765 58.5296 58.6217 58.3408 58.5176C58.1553 58.4134 57.9372 58.3613 57.6865 58.3613C57.4391 58.3613 57.221 58.4134 57.0322 58.5176C56.8467 58.6217 56.6904 58.765 56.5635 58.9473C56.4398 59.1263 56.347 59.333 56.2852 59.5674C56.2233 59.7985 56.1924 60.0443 56.1924 60.3047ZM62.2129 55.5V63H61.3047V55.5H62.2129ZM65.2695 62.1846L66.7148 57.7168H67.6377L65.7383 63H65.1328L65.2695 62.1846ZM64.0635 57.7168L65.5527 62.209L65.6553 63H65.0498L63.1357 57.7168H64.0635ZM69.4883 57.7168V63H68.5801V57.7168H69.4883ZM68.5117 56.3154C68.5117 56.1689 68.5557 56.0452 68.6436 55.9443C68.7347 55.8434 68.8682 55.793 69.0439 55.793C69.2165 55.793 69.3483 55.8434 69.4395 55.9443C69.5339 56.0452 69.5811 56.1689 69.5811 56.3154C69.5811 56.4554 69.5339 56.5758 69.4395 56.6768C69.3483 56.7744 69.2165 56.8232 69.0439 56.8232C68.8682 56.8232 68.7347 56.7744 68.6436 56.6768C68.5557 56.5758 68.5117 56.4554 68.5117 56.3154ZM71.8418 58.8447V63H70.9385V57.7168H71.793L71.8418 58.8447ZM71.627 60.1582L71.251 60.1436C71.2542 59.7822 71.3079 59.4486 71.4121 59.1426C71.5163 58.8333 71.6628 58.5648 71.8516 58.3369C72.0404 58.109 72.265 57.9333 72.5254 57.8096C72.7891 57.6826 73.0804 57.6191 73.3994 57.6191C73.6598 57.6191 73.8942 57.6549 74.1025 57.7266C74.3109 57.7949 74.4883 57.9056 74.6348 58.0586C74.7845 58.2116 74.8984 58.4102 74.9766 58.6543C75.0547 58.8952 75.0938 59.1898 75.0938 59.5381V63H74.1855V59.5283C74.1855 59.2516 74.1449 59.0303 74.0635 58.8643C73.9821 58.695 73.8633 58.5729 73.707 58.498C73.5508 58.4199 73.3587 58.3809 73.1309 58.3809C72.9062 58.3809 72.7012 58.4281 72.5156 58.5225C72.3333 58.6169 72.1755 58.7471 72.042 58.9131C71.9118 59.0791 71.8092 59.2695 71.7344 59.4844C71.6628 59.696 71.627 59.9206 71.627 60.1582ZM79.8887 57.7168H80.709V62.8877C80.709 63.3532 80.6146 63.7503 80.4258 64.0791C80.237 64.4079 79.9733 64.6569 79.6348 64.8262C79.2995 64.9987 78.9121 65.085 78.4727 65.085C78.2904 65.085 78.0755 65.0557 77.8281 64.9971C77.584 64.9417 77.3431 64.8457 77.1055 64.709C76.8711 64.5755 76.6742 64.3949 76.5146 64.167L76.9883 63.6299C77.2096 63.8968 77.4408 64.0824 77.6816 64.1865C77.9258 64.2907 78.1667 64.3428 78.4043 64.3428C78.6908 64.3428 78.9382 64.2891 79.1465 64.1816C79.3548 64.0742 79.516 63.9147 79.6299 63.7031C79.7471 63.4948 79.8057 63.2376 79.8057 62.9316V58.8789L79.8887 57.7168ZM76.251 60.417V60.3145C76.251 59.9108 76.2982 59.5446 76.3926 59.2158C76.4902 58.8838 76.6286 58.599 76.8076 58.3613C76.9899 58.1237 77.2096 57.9414 77.4668 57.8145C77.724 57.6842 78.0137 57.6191 78.3359 57.6191C78.668 57.6191 78.9577 57.6777 79.2051 57.7949C79.4557 57.9089 79.6673 58.0765 79.8398 58.2979C80.0156 58.516 80.154 58.7796 80.2549 59.0889C80.3558 59.3981 80.4258 59.748 80.4648 60.1387V60.5879C80.429 60.9753 80.359 61.3236 80.2549 61.6328C80.154 61.9421 80.0156 62.2057 79.8398 62.4238C79.6673 62.6419 79.4557 62.8096 79.2051 62.9268C78.9544 63.0407 78.6615 63.0977 78.3262 63.0977C78.0104 63.0977 77.724 63.0309 77.4668 62.8975C77.2129 62.764 76.9948 62.5768 76.8125 62.3359C76.6302 62.0951 76.4902 61.8118 76.3926 61.4863C76.2982 61.1576 76.251 60.8011 76.251 60.417ZM77.1543 60.3145V60.417C77.1543 60.6807 77.1803 60.9281 77.2324 61.1592C77.2878 61.3903 77.3708 61.5938 77.4814 61.7695C77.5954 61.9453 77.7402 62.0837 77.916 62.1846C78.0918 62.2822 78.3018 62.3311 78.5459 62.3311C78.8454 62.3311 79.0928 62.2676 79.2881 62.1406C79.4834 62.0137 79.638 61.846 79.752 61.6377C79.8691 61.4294 79.9603 61.2031 80.0254 60.959V59.7822C79.9896 59.6032 79.9342 59.4307 79.8594 59.2646C79.7878 59.0954 79.6934 58.9456 79.5762 58.8154C79.4622 58.682 79.3206 58.5762 79.1514 58.498C78.9821 58.4199 78.7835 58.3809 78.5557 58.3809C78.3083 58.3809 78.0951 58.4329 77.916 58.5371C77.7402 58.638 77.5954 58.778 77.4814 58.957C77.3708 59.1328 77.2878 59.3379 77.2324 59.5723C77.1803 59.8034 77.1543 60.0508 77.1543 60.3145Z" fill="#39424E"/>
<g clip-path="url(#clip1_0_1)">
<path d="M39.3707 31.1683L45.1858 34.1881L45.2801 34.2415C45.313 34.2652 45.3507 34.2828 45.391 34.2932C45.4133 34.299 45.4327 34.285 45.4549 34.2863C45.5085 34.2942 45.5635 34.2883 45.6136 34.2691C45.6207 34.266 45.6284 34.2672 45.6353 34.2635C45.6633 34.2533 45.6949 34.2595 45.7198 34.2415L45.8169 34.1867L51.7138 31.1245C51.8638 31.0139 51.855 30.9954 51.855 30.8663C51.8551 30.6728 51.7596 30.6304 51.6184 30.5575L45.7271 27.427L45.6412 27.3814H45.605C45.5394 27.3594 45.4674 27.3594 45.4018 27.3814H45.3588L45.2897 27.4181H45.2896L39.3387 30.5803C39.2778 30.6035 39.2264 30.6436 39.1917 30.6949C39.1569 30.7462 39.1406 30.8061 39.145 30.8663C39.145 30.9954 39.1824 31.0694 39.3707 31.1683ZM45.7824 33.7058V28.1558L51.1488 30.8662L45.7824 33.7058Z" fill="#39424E"/>
<path d="M64 30.8663C64 30.7372 64.0019 30.6518 63.8587 30.6082L50.2267 23.1523L51.8549 22.3477C52.0183 22.2813 51.9962 22.2186 51.9962 22.0895V15.636C51.9962 15.6088 51.9901 15.5873 51.9888 15.5613C51.9925 15.5434 51.995 15.5252 51.9962 15.507C51.9962 15.3779 51.9962 15.2488 51.8549 15.2488L45.97 12.0473C45.9136 12.0166 45.8494 12.0003 45.7838 12C45.7182 11.9997 45.6538 12.0154 45.5971 12.0455L39.5687 15.2488C39.5171 15.2758 39.4768 15.3179 39.4543 15.3683C39.4496 15.3777 39.4456 15.3875 39.4425 15.3975C39.4251 15.4759 39.42 15.5563 39.4275 15.636V21.985C39.422 22.0325 39.4326 22.0803 39.4579 22.1221C39.4831 22.1639 39.5218 22.1976 39.5687 22.2186L41.1126 23.0356L27.1412 30.35C27 30.4791 27 30.4791 27 30.6082C27 30.6354 27.0061 30.6569 27.0074 30.6829C27.0037 30.7008 27.0012 30.719 27 30.7372V37.0617C27 37.1907 27 37.2495 27.1412 37.3197L45.5 47C45.5934 46.9779 45.6805 46.9375 45.7552 46.8816L45.7824 46.871L63.8587 37.4489C64 37.4489 64 37.3198 64 37.1907V30.9954L63.9947 30.9905C63.9995 30.9492 64.0013 30.9077 64 30.8663V30.8663ZM45.7619 12.476L51.3728 15.4508L45.693 18.4821L45.6804 18.4754L40.0664 15.4924L45.7619 12.476ZM39.9924 15.9852L44.6086 18.3823L45.3659 18.7905C45.3647 18.8157 45.3588 18.8365 45.3588 18.8628V24.6336L42.1392 22.9885L39.9924 21.8314L39.9924 15.9852ZM44.5728 24.8667L45.3334 25.287C45.3943 25.3287 45.4654 25.3562 45.5405 25.3669C45.6157 25.3777 45.6926 25.3714 45.7645 25.3486H45.7824L45.8055 25.3371L45.8118 25.3341L49.4663 23.5281L63.1526 30.8663L45.6876 40.0605C45.6701 40.0523 45.6677 40.0303 45.6412 40.0303L27.7911 30.6717L41.7842 23.391L44.5728 24.8667ZM45.2176 46.3546L27.5649 37.0617V31.2535L45.2176 40.5465V46.3546Z" fill="#39424E"/>
</g>
<path d="M31.6825 74.7636L29.3685 74.412L28.3321 72.2163C28.3021 72.151 28.2549 72.0961 28.1962 72.0578C28.1374 72.0195 28.0695 71.9994 28.0003 72C27.9316 72.0028 27.8648 72.0242 27.8065 72.0621C27.7481 72.1 27.7002 72.1531 27.6674 72.2163L27.2948 73.0068L26.632 74.412L26.0039 74.5079L24.3181 74.7636C24.2301 74.7766 24.1495 74.8224 24.091 74.8925C24.0694 74.9191 24.0509 74.9484 24.0361 74.9798C24.0227 75.0112 24.0128 75.0441 24.0065 75.0778C24.0035 75.0951 24.0015 75.1125 24.0004 75.13C23.9977 75.1888 24.0078 75.2475 24.03 75.3016C24.0498 75.3478 24.0774 75.3901 24.1114 75.4262L25.7871 77.135L25.4359 79.2722L25.3911 79.546C25.389 79.5588 25.389 79.5715 25.388 79.5833L25.386 79.6056C25.3851 79.6245 25.3858 79.6434 25.388 79.6621C25.396 79.7243 25.4182 79.7835 25.4527 79.8348C25.4873 79.886 25.5331 79.9278 25.5864 79.9566C25.6396 79.9853 25.6987 80.0002 25.7587 79.9999C25.8186 79.9997 25.8776 79.9843 25.9306 79.9551L28.0003 78.8173L30.0699 79.9551C30.1312 79.9889 30.2003 80.0042 30.2694 79.999C30.3385 79.9939 30.4048 79.9686 30.4609 79.926C30.5169 79.8834 30.5605 79.8252 30.5866 79.7581C30.6126 79.6909 30.6202 79.6174 30.6084 79.546L30.2134 77.134L31.8881 75.4252C31.9376 75.3746 31.9727 75.3106 31.9892 75.2403C32.0058 75.17 32.0032 75.0963 31.9818 75.0275C31.9604 74.9586 31.921 74.8974 31.8681 74.8508C31.8152 74.8041 31.7509 74.7739 31.6825 74.7636" fill="#39424E"/>
<path d="M49.6825 74.7636L47.3685 74.412L46.3321 72.2163C46.3021 72.151 46.2549 72.0961 46.1962 72.0578C46.1374 72.0195 46.0695 71.9994 46.0003 72C45.9316 72.0028 45.8648 72.0242 45.8065 72.0621C45.7481 72.1 45.7002 72.1531 45.6674 72.2163L45.2948 73.0068L44.632 74.412L44.0039 74.5079L42.3181 74.7636C42.2301 74.7766 42.1495 74.8224 42.091 74.8925C42.0694 74.9191 42.0509 74.9484 42.0361 74.9798C42.0227 75.0112 42.0128 75.0441 42.0065 75.0778C42.0035 75.0951 42.0015 75.1125 42.0004 75.13C41.9977 75.1888 42.0078 75.2475 42.03 75.3016C42.0498 75.3478 42.0774 75.3901 42.1114 75.4262L43.7871 77.135L43.4359 79.2722L43.3911 79.546C43.389 79.5588 43.389 79.5715 43.388 79.5833L43.386 79.6056C43.3851 79.6245 43.3858 79.6434 43.388 79.6621C43.396 79.7243 43.4182 79.7835 43.4527 79.8348C43.4873 79.886 43.5331 79.9278 43.5864 79.9566C43.6396 79.9853 43.6987 80.0002 43.7587 79.9999C43.8186 79.9997 43.8776 79.9843 43.9306 79.9551L46.0003 78.8173L48.0699 79.9551C48.1312 79.9889 48.2003 80.0042 48.2694 79.999C48.3385 79.9939 48.4048 79.9686 48.4609 79.926C48.5169 79.8834 48.5605 79.8252 48.5866 79.7581C48.6126 79.6909 48.6202 79.6174 48.6084 79.546L48.2134 77.134L49.8881 75.4252C49.9376 75.3746 49.9727 75.3106 49.9892 75.2403C50.0058 75.17 50.0032 75.0963 49.9818 75.0275C49.9604 74.9586 49.921 74.8974 49.8681 74.8508C49.8152 74.8041 49.7509 74.7739 49.6825 74.7636" fill="#39424E"/>
<path d="M66.6825 74.7636L64.3685 74.412L63.3321 72.2163C63.3021 72.151 63.2549 72.0961 63.1962 72.0578C63.1374 72.0195 63.0695 71.9994 63.0003 72C62.9316 72.0028 62.8648 72.0242 62.8065 72.0621C62.7481 72.1 62.7002 72.1531 62.6674 72.2163L62.2948 73.0068L61.632 74.412L61.0039 74.5079L59.3181 74.7636C59.2301 74.7766 59.1495 74.8224 59.091 74.8925C59.0694 74.9191 59.0509 74.9484 59.0361 74.9798C59.0227 75.0112 59.0128 75.0441 59.0065 75.0778C59.0035 75.0951 59.0015 75.1125 59.0004 75.13C58.9977 75.1888 59.0078 75.2475 59.03 75.3016C59.0498 75.3478 59.0774 75.3901 59.1114 75.4262L60.7871 77.135L60.4359 79.2722L60.3911 79.546C60.389 79.5588 60.389 79.5715 60.388 79.5833L60.386 79.6056C60.3851 79.6245 60.3858 79.6434 60.388 79.6621C60.396 79.7243 60.4182 79.7835 60.4527 79.8348C60.4873 79.886 60.5331 79.9278 60.5864 79.9566C60.6396 79.9853 60.6987 80.0002 60.7587 79.9999C60.8186 79.9997 60.8776 79.9843 60.9306 79.9551L63.0003 78.8173L65.0699 79.9551C65.1312 79.9889 65.2003 80.0042 65.2694 79.999C65.3385 79.9939 65.4048 79.9686 65.4609 79.926C65.5169 79.8834 65.5605 79.8252 65.5866 79.7581C65.6126 79.6909 65.6202 79.6174 65.6084 79.546L65.2134 77.134L66.8881 75.4252C66.9376 75.3746 66.9727 75.3106 66.9892 75.2403C67.0058 75.17 67.0032 75.0963 66.9818 75.0275C66.9604 74.9586 66.921 74.8974 66.8681 74.8508C66.8152 74.8041 66.7509 74.7739 66.6825 74.7636" fill="#39424E"/>
</g>
<defs>
<linearGradient id="paint0_linear_0_1" x1="45.8333" y1="-8.34221e-09" x2="45.5" y2="99" gradientUnits="userSpaceOnUse">
<stop stop-color="#CBE1E8"/>
<stop offset="0.416667" stop-color="#B1CACA"/>
</linearGradient>
<clipPath id="clip0_0_1">
<rect width="91.6667" height="100" fill="white"/>
</clipPath>
<clipPath id="clip1_0_1">
<rect width="37" height="35" fill="white" transform="translate(27 12)"/>
</clipPath>
</defs>
</svg>
