<svg width="204" height="204" viewBox="0 0 204 204" fill="none" xmlns="http://www.w3.org/2000/svg">
<path d="M18.5 1L202.5 184.5L184.5 203L1 20L18.5 1Z" fill="white"/>
<path d="M18.5 1L18.8531 0.645966L18.4847 0.278587L18.1322 0.661262L18.5 1ZM202.5 184.5L202.858 184.849L203.203 184.495L202.853 184.146L202.5 184.5ZM184.5 203L184.147 203.354L184.505 203.711L184.858 203.349L184.5 203ZM1 20L0.632227 19.6613L0.30668 20.0147L0.646929 20.354L1 20ZM18.1469 1.35403L202.147 184.854L202.853 184.146L18.8531 0.645966L18.1469 1.35403ZM202.142 184.151L184.142 202.651L184.858 203.349L202.858 184.849L202.142 184.151ZM184.853 202.646L1.35307 19.646L0.646929 20.354L184.147 203.354L184.853 202.646ZM1.36777 20.3387L18.8678 1.33874L18.1322 0.661262L0.632227 19.6613L1.36777 20.3387Z" fill="white"/>
<path d="M185 1L1 184.5L19 203L202.5 20L185 1Z" fill="white"/>
<path d="M185 1L184.647 0.645966L185.015 0.278587L185.368 0.661262L185 1ZM1 184.5L0.641637 184.849L0.297235 184.495L0.646928 184.146L1 184.5ZM19 203L19.3531 203.354L18.9946 203.711L18.6416 203.349L19 203ZM202.5 20L202.868 19.6613L203.193 20.0147L202.853 20.354L202.5 20ZM185.353 1.35403L1.35307 184.854L0.646928 184.146L184.647 0.645966L185.353 1.35403ZM1.35836 184.151L19.3584 202.651L18.6416 203.349L0.641637 184.849L1.35836 184.151ZM18.6469 202.646L202.147 19.646L202.853 20.354L19.3531 203.354L18.6469 202.646ZM202.132 20.3387L184.632 1.33874L185.368 0.661262L202.868 19.6613L202.132 20.3387Z" fill="white"/>
</svg>
