<svg xmlns="http://www.w3.org/2000/svg" viewBox="0 0 512 512" fill="currentColor" class="_32LSPinZJSFTDSWqlu8ZHO"><path d="M488 256a232.014 232.014 0 01-373.467 183.892 233.557 233.557 0 01-82.025-121.445 24 24 0 1146.235-12.894 185.25 185.25 0 0065.083 96.312A182.236 182.236 0 00256 440c101.458 0 184-82.542 184-184S357.458 72 256 72a182.241 182.241 0 00-112.175 38.135 184.6 184.6 0 00-32.139 31.792l-18.549 5.456-2.976-53.576A231.977 231.977 0 01488 256zM62.771 223.024l136-40a24 24 0 10-13.543-46.048L78.282 168.43l-6.32-113.761a24 24 0 10-47.924 2.662l8 144a24 24 0 0030.734 21.693z"></path></svg>